<?xml version="1.0" encoding="utf-8"?>
<!-- Generator: Adobe Illustrator 21.0.0, SVG Export Plug-In . SVG Version: 6.00 Build 0)  -->
<svg version="1.1" id="图层_1" xmlns="http://www.w3.org/2000/svg" xmlns:xlink="http://www.w3.org/1999/xlink" x="0px" y="0px"
	 viewBox="0 0 256 298" style="enable-background:new 0 0 256 298;" xml:space="preserve">
<style type="text/css">
	.st0{fill:#E44D26;}
	.st1{fill:#F16529;}
	.st2{fill:#EBEBEB;}
	.st3{fill:#FFFFFF;}
</style>
<path class="st0" d="M255.6,7.8l-23.2,260.4l-104.5,29L23.7,268.2L0.4,7.8H255.6L255.6,7.8z"/>
<path class="st1" d="M128,275l84.4-23.4l19.9-222.5H128V275L128,275z"/>
<path class="st2" d="M82.8,92.9H128V61H47.9l0.8,8.6l7.8,88H128v-31.9H85.7L82.8,92.9L82.8,92.9z"/>
<path class="st2" d="M90,173.5H58l4.5,50.1l65.4,18.2l0.1,0v-33.2l-0.1,0L92.3,199L90,173.5L90,173.5z"/>
<path class="st3" d="M127.9,157.6h39.3l-3.7,41.4l-35.6,9.6v33.2l65.5-18.1l0.5-5.4l7.5-84.1l0.8-8.6h-74.2V157.6L127.9,157.6z"/>
<path class="st3" d="M127.9,92.9L127.9,92.9l77.1,0.1l0.6-7.2l1.5-16.2l0.8-8.6h-80V92.9L127.9,92.9z"/>
</svg>
